<?xml version="1.0" encoding="UTF-8"?>
<svg width="250px" height="64px" viewBox="0 0 250 64" version="1.1" xmlns="http://www.w3.org/2000/svg"
     xmlns:xlink="http://www.w3.org/1999/xlink">
    <g id="页面-1" stroke="none" stroke-width="1" fill="none" fill-rule="evenodd">
        <g id="编组-3" fill-rule="nonzero">
            <path d="M14.2027481,1.390689 C25.9956602,-0.463563 38.0059121,-0.463563 49.7988242,1.390689 C56.1091732,2.96520511 61.0362944,7.89220525 62.6108492,14.2023992 C64.4630503,25.9951853 64.4630503,38.0048147 62.6108492,49.7976008 C61.0362944,56.1077947 56.1091732,61.0347949 49.7988242,62.609311 C38.0059121,64.463563 25.9956602,64.463563 14.2027481,62.609311 C7.89239915,61.0347949 2.96527796,56.1077947 1.39072317,49.7976008 C-0.46357439,38.0049784 -0.46357439,25.9950216 1.39072317,14.2023992 C2.96527796,7.89220525 7.89239915,2.96520511 14.2027481,1.390689 Z M46.5438272,16.0003684 L42.0531428,16.0003684 C37.5576566,15.9705829 33.2388443,17.7480539 30.0677665,20.9331269 L30.0677665,20.9331269 L26.251451,24.7475892 L19.9215784,25.6514176 C19.1048211,25.7679933 18.347198,26.1439356 17.7605323,26.7237564 L17.7605323,26.7237564 L16.672346,27.8267335 C15.7758847,28.7238752 15.7758847,30.1772463 16.672346,31.0743881 L16.672346,31.0743881 L21.5461946,35.9152319 L18.2969622,39.1935247 C17.6959735,39.7899914 17.6925425,40.7604841 18.2892989,41.361181 C18.8860553,41.9618779 19.8570196,41.9653072 20.4580083,41.3688406 L20.4580083,41.3688406 L23.7225673,38.1365051 L32.9185082,47.3279805 C33.8160858,48.2240065 35.270163,48.2240065 36.1677406,47.3279805 L36.1677406,47.3279805 L37.255927,46.2403226 C37.8416434,45.6560452 38.223254,44.8985666 38.3441133,44.0803259 L38.3441133,44.0803259 L39.2483808,37.7535269 L43.0646963,33.9390646 C46.2361392,30.7844669 48.0132136,26.4928752 47.999926,22.0207848 L47.999926,22.0207848 L47.999926,17.532281 C48.0008736,16.7152607 47.3602227,16.0412188 46.5438272,16.0003684 L46.5438272,16.0003684 Z M25.971838,42.3376785 C25.4057221,41.7718374 24.4992569,41.7368416 23.8911595,42.2573499 L23.8911595,42.2573499 L21.7301134,44.4173466 C21.2880033,44.8556122 21.1551191,45.5176686 21.3938931,46.0924647 C21.6326671,46.6672608 22.1956349,47.0405365 22.8182998,47.0369171 C23.2192019,47.0516148 23.6098887,46.9086158 23.9064861,46.6386199 L23.9064861,46.6386199 L26.0522057,44.4173466 C26.5729669,43.8095446 26.537954,42.9035196 25.971838,42.3376785 Z M36.0251265,23.0251263 C37.3919618,21.6582912 39.6080397,21.6582912 40.974875,23.0251263 C42.3417104,24.3919613 42.3417104,26.6080387 40.9748751,27.9748737 C39.6080397,29.3417088 37.3919618,29.3417088 36.0251265,27.9748737 C34.6582912,26.6080387 34.6582912,24.3919613 36.0251265,23.0251263 Z"
                  id="形状结合" fill="#206BC4"></path>
            <path d="M94.36,48.64 C94.5733333,48.64 94.7866667,48.6 95,48.52 C95.5333333,48.3333333 95.88,47.9866667 96.04,47.48 C96.4666667,46.2266667 96.8133333,44.84 97.08,43.32 C97.08,43.2666667 97.1066667,43.2333333 97.16,43.22 C97.2133333,43.2066667 97.2533333,43.2133333 97.28,43.24 C98.8,45.2666667 100.74,46.6466667 103.1,47.38 C105.46,48.1133333 108.613333,48.48 112.56,48.48 L112.56,48.48 L125.8,48.48 C126.466667,48.48 127.073333,48.28 127.62,47.88 C128.166667,47.48 128.546667,46.9466667 128.76,46.28 C128.813333,46.12 128.866667,45.9733333 128.92,45.84 C129,45.68 129.04,45.4933333 129.04,45.28 C129.04,45.0133333 128.96,44.7466667 128.8,44.48 C128.533333,44.0533333 128.16,43.84 127.68,43.84 L127.68,43.84 L127.6,43.84 C124.56,43.92 121.426667,43.96 118.2,43.96 C116.333333,43.96 114.453333,43.9466667 112.56,43.92 C109.093333,43.92 106.453333,43.6533333 104.64,43.12 C104.453333,43.04 104.36,42.9066667 104.36,42.72 L104.36,42.72 L104.36,36.96 C104.36,36.7466667 104.466667,36.64 104.68,36.64 L104.68,36.64 L107.6,36.64 C108.16,36.64 108.64,36.4466667 109.04,36.06 C109.44,35.6733333 109.64,35.1933333 109.64,34.62 C109.64,34.0466667 109.44,33.5533333 109.04,33.14 C108.64,32.7266667 108.16,32.52 107.6,32.52 L107.6,32.52 L104.68,32.52 C104.466667,32.52 104.36,32.4133333 104.36,32.2 L104.36,32.2 L104.36,28.44 C104.36,28.2266667 104.466667,28.12 104.68,28.12 L104.68,28.12 L108.52,28.12 C108.946667,28.12 109.326667,27.9666667 109.66,27.66 C109.993333,27.3533333 110.16,26.9733333 110.16,26.52 C110.16,26.4666667 110.18,26.4266667 110.22,26.4 C110.26,26.3733333 110.293333,26.3733333 110.32,26.4 C110.506667,26.56 110.68,26.7066667 110.84,26.84 C111.4,27.2933333 112.026667,27.5333333 112.72,27.56 L112.72,27.56 L112.84,27.56 C113.453333,27.56 114,27.36 114.48,26.96 C116.933333,24.8 118.546667,21.7333333 119.32,17.76 C119.346667,17.5733333 119.466667,17.48 119.68,17.48 L119.68,17.48 L123.32,17.48 C123.533333,17.48 123.626667,17.5733333 123.6,17.76 C123.44,20.4266667 123.213333,22.1066667 122.92,22.8 C122.84,22.9866667 122.72,23.1333333 122.56,23.24 C122.346667,23.4 122.026667,23.48 121.6,23.48 C121.146667,23.48 120.773333,23.4666667 120.48,23.44 L120.48,23.44 L120.44,23.44 C119.986667,23.44 119.626667,23.6266667 119.36,24 C119.173333,24.24 119.08,24.5066667 119.08,24.8 C119.08,24.9333333 119.106667,25.08 119.16,25.24 C119.346667,25.8266667 119.66,26.3266667 120.1,26.74 C120.54,27.1533333 121.053333,27.36 121.64,27.36 C122.52,27.36 123.306667,27.32 124,27.24 C125.2,27.0533333 126.093333,26.6 126.68,25.88 C127.133333,25.3466667 127.48,24.32 127.72,22.8 C128.093333,20.3733333 128.28,18.0133333 128.28,15.72 C128.28,15.1066667 128.066667,14.6 127.64,14.2 C127.186667,13.7466667 126.64,13.52 126,13.52 L126,13.52 L112.64,13.52 C112.08,13.52 111.606667,13.7066667 111.22,14.08 C110.833333,14.4533333 110.64,14.9133333 110.64,15.46 C110.64,16.0066667 110.833333,16.48 111.22,16.88 C111.606667,17.28 112.08,17.48 112.64,17.48 L112.64,17.48 L114.64,17.48 C114.826667,17.48 114.893333,17.5733333 114.84,17.76 C114.146667,20.96 112.613333,23.3333333 110.24,24.88 C110.186667,24.9066667 110.16,24.8933333 110.16,24.84 C110.16,24.5733333 110.066667,24.36 109.88,24.2 C109.693333,24.04 109.48,23.96 109.24,23.96 L109.24,23.96 L104.04,23.96 C103.853333,23.96 103.76,23.8533333 103.76,23.64 L103.76,23.64 L103.76,20.52 C103.76,20.3333333 103.853333,20.24 104.04,20.24 L104.04,20.24 L107.36,20.24 C107.946667,20.24 108.44,20.04 108.84,19.64 C109.24,19.24 109.44,18.7533333 109.44,18.18 C109.44,17.6066667 109.24,17.12 108.84,16.72 C108.44,16.32 107.946667,16.12 107.36,16.12 L107.36,16.12 L104.04,16.12 C103.853333,16.12 103.76,16.0266667 103.76,15.84 L103.76,15.84 L103.76,14.28 C103.76,13.6666667 103.546667,13.1466667 103.12,12.72 C102.693333,12.2933333 102.173333,12.08 101.56,12.08 C100.946667,12.08 100.42,12.2933333 99.98,12.72 C99.54,13.1466667 99.32,13.6666667 99.32,14.28 L99.32,14.28 L99.32,15.84 C99.32,16.0266667 99.2266667,16.12 99.04,16.12 L99.04,16.12 L95.52,16.12 C94.9866667,16.12 94.5133333,16.32 94.1,16.72 C93.6866667,17.12 93.48,17.6066667 93.48,18.18 C93.48,18.7533333 93.6866667,19.24 94.1,19.64 C94.5133333,20.04 94.9866667,20.24 95.52,20.24 L95.52,20.24 L99.04,20.24 C99.2266667,20.24 99.32,20.3333333 99.32,20.52 L99.32,20.52 L99.32,23.64 C99.32,23.8533333 99.2266667,23.96 99.04,23.96 L99.04,23.96 L94.68,23.96 C94.0933333,23.96 93.5933333,24.16 93.18,24.56 C92.7666667,24.96 92.56,25.4533333 92.56,26.04 C92.56,26.6266667 92.7666667,27.12 93.18,27.52 C93.5933333,27.92 94.0933333,28.12 94.68,28.12 L94.68,28.12 L99.8,28.12 C100.013333,28.12 100.12,28.2266667 100.12,28.44 L100.12,28.44 L100.12,39.84 C100.12,39.8933333 100.093333,39.9266667 100.04,39.94 C99.9866667,39.9533333 99.9466667,39.9466667 99.92,39.92 C99.1733333,38.9866667 98.52,37.7333333 97.96,36.16 C97.88,35.9733333 97.8533333,35.7866667 97.88,35.6 C97.96,33.8666667 98,32.8133333 98,32.44 C98,31.9066667 97.8,31.4266667 97.4,31 C97.0266667,30.5733333 96.5333333,30.3333333 95.92,30.28 L95.92,30.28 L95.76,30.28 C95.28,30.28 94.8533333,30.4533333 94.48,30.8 C94.0533333,31.2 93.8266667,31.68 93.8,32.24 C93.6933333,38.1866667 93.1866667,42.5733333 92.28,45.4 C92.2,45.6666667 92.16,45.9333333 92.16,46.2 C92.16,46.52 92.2133333,46.8266667 92.32,47.12 C92.5333333,47.6533333 92.8933333,48.0666667 93.4,48.36 C93.72,48.5466667 94.04,48.64 94.36,48.64 Z M125.04,41.48 C125.68,41.48 126.226667,41.2533333 126.68,40.8 C127.133333,40.3466667 127.36,39.8 127.36,39.16 L127.36,39.16 L127.36,31.16 C127.36,30.4933333 127.133333,29.94 126.68,29.5 C126.226667,29.06 125.68,28.84 125.04,28.84 L125.04,28.84 L114,28.84 C113.333333,28.84 112.78,29.06 112.34,29.5 C111.9,29.94 111.68,30.4933333 111.68,31.16 L111.68,31.16 L111.68,39.16 C111.68,39.8 111.9,40.3466667 112.34,40.8 C112.78,41.2533333 113.333333,41.48 114,41.48 L114,41.48 L125.04,41.48 Z M122.36,37.68 L116.44,37.68 C116.226667,37.68 116.12,37.5866667 116.12,37.4 L116.12,37.4 L116.12,33 C116.12,32.7866667 116.226667,32.68 116.44,32.68 L116.44,32.68 L122.36,32.68 C122.52,32.68 122.6,32.7866667 122.6,33 L122.6,33 L122.6,37.4 C122.6,37.5866667 122.52,37.68 122.36,37.68 L122.36,37.68 Z M133.88,36.84 C134.413333,37.0533333 136.233333,36.9133333 139.34,36.42 C142.446667,35.9266667 144.266667,35.6533333 144.8,35.6 C145.333333,35.5466667 145.846667,35.44 146.34,35.28 C146.833333,35.12 147.213333,34.68 147.48,33.96 C147.64,33.48 147.673333,33.0066667 147.58,32.54 C147.486667,32.0733333 147.266667,31.7466667 146.92,31.56 C146.573333,31.3733333 144.213333,31.5466667 139.84,32.08 C144.693333,26.6666667 147.466667,23.2133333 148.16,21.72 C148.32,21.3466667 148.38,20.9733333 148.34,20.6 C148.3,20.2266667 148.133333,19.86 147.84,19.5 C147.546667,19.14 147.146667,18.88 146.64,18.72 C145.92,18.56 145.346667,18.6266667 144.92,18.92 C144.493333,19.2133333 144.06,19.7533333 143.62,20.54 C143.18,21.3266667 142.613333,22.2266667 141.92,23.24 C140.693333,23.32 139.44,23.3333333 138.16,23.28 L138.16,23.28 L141.48,18.72 C142.546667,17.2266667 143.186667,16.28 143.4,15.88 C143.666667,15.3466667 143.793333,14.88 143.78,14.48 C143.766667,14.08 143.606667,13.6666667 143.3,13.24 C142.993333,12.8133333 142.52,12.5466667 141.88,12.44 C140.866667,12.3066667 140,12.8266667 139.28,14 L139.28,14 L137.96,16.44 C137.133333,17.9066667 136.146667,19.32 135,20.68 C133.853333,22.04 133.226667,22.84 133.12,23.08 C133.013333,23.32 132.946667,23.5866667 132.92,23.88 C132.84,24.8133333 133.006667,25.5466667 133.42,26.08 C133.833333,26.6133333 134.26,26.9333333 134.7,27.04 C135.14,27.1466667 136.6,27.1066667 139.08,26.92 C137.026667,29.5333333 135.526667,31.2133333 134.58,31.96 C133.633333,32.7066667 133.08,33.1666667 132.92,33.34 C132.76,33.5133333 132.64,33.7333333 132.56,34 C132.48,34.32 132.493333,34.8066667 132.6,35.46 C132.706667,36.1133333 133.133333,36.5733333 133.88,36.84 Z M146,49.16 C146.586667,49.1866667 147.133333,48.9866667 147.64,48.56 C148.146667,48.1333333 148.773333,47.48 149.52,46.6 C150.266667,45.72 150.893333,44.9466667 151.4,44.28 C151.906667,43.6133333 152.426667,42.6 152.96,41.24 C153.493333,39.88 153.84,38.58 154,37.34 C154.16,36.1 154.293333,35.08 154.4,34.28 C155.306667,36.28 156.02,37.68 156.54,38.48 C157.06,39.28 157.706667,40.2133333 158.48,41.28 C156.826667,42.8266667 155.326667,43.8733333 153.98,44.42 C152.633333,44.9666667 151.82,45.3666667 151.54,45.62 C151.26,45.8733333 151.12,46.2666667 151.12,46.8 C151.093333,47.04 151.16,47.4533333 151.32,48.04 C151.48,48.6266667 152.013333,48.9733333 152.92,49.08 C153.666667,49.16 154.913333,48.7066667 156.66,47.72 C158.406667,46.7333333 159.973333,45.64 161.36,44.44 C164.426667,47.2666667 166.586667,48.6266667 167.84,48.52 C168.56,48.4933333 169.093333,48.2066667 169.44,47.66 C169.786667,47.1133333 169.973333,46.6 170,46.12 C170,45.5866667 169.873333,45.1533333 169.62,44.82 C169.366667,44.4866667 168.96,44.1733333 168.4,43.88 L168.4,43.88 L166.72,43.08 C165.92,42.6533333 165.08,41.9866667 164.2,41.08 L164.2,41.08 L165.32,38.84 C165.533333,38.44 165.793333,37.7333333 166.1,36.72 C166.406667,35.7066667 166.806667,34.2533333 167.3,32.36 C167.793333,30.4666667 168.066667,29 168.12,27.96 C168.12,27.5066667 168.033333,26.9133333 167.86,26.18 C167.686667,25.4466667 166.786667,25.08 165.16,25.08 L165.16,25.08 L164.28,25.08 C163.88,25.08 163.606667,24.9666667 163.46,24.74 C163.313333,24.5133333 163.333333,24.12 163.52,23.56 L163.52,23.56 L164.32,20.36 C164.693333,18.9466667 164.873333,17.9533333 164.86,17.38 C164.846667,16.8066667 164.633333,16.1333333 164.22,15.36 C163.806667,14.5866667 162.466667,14.2 160.2,14.2 L160.2,14.2 L149.48,14.2 C148.92,14.2 148.42,14.4066667 147.98,14.82 C147.54,15.2333333 147.333333,15.78 147.36,16.46 C147.386667,17.14 147.646667,17.6066667 148.14,17.86 C148.633333,18.1133333 149.053333,18.24 149.4,18.24 L149.4,18.24 L150.76,18.28 L150.76,19.92 C150.76,22.2133333 150.713333,24.8666667 150.62,27.88 C150.526667,30.8933333 150.326667,33.4733333 150.02,35.62 C149.713333,37.7666667 149.26,39.4 148.66,40.52 C148.06,41.64 147.48,42.52 146.92,43.16 C146.36,43.8 145.78,44.32 145.18,44.72 C144.58,45.12 144.193333,45.4266667 144.02,45.64 C143.846667,45.8533333 143.746667,46.1333333 143.72,46.48 C143.693333,46.6933333 143.706667,47.02 143.76,47.46 C143.813333,47.9 144.093333,48.2933333 144.6,48.64 C145.106667,48.9866667 145.573333,49.16 146,49.16 Z M161.16,37.84 C159.72,35.8133333 158.653333,33.9866667 157.96,32.36 C157.266667,30.7333333 156.673333,29.0866667 156.18,27.42 C155.686667,25.7533333 155.353333,24.3266667 155.18,23.14 C155.006667,21.9533333 154.933333,21.0066667 154.96,20.3 C154.986667,19.5933333 155.026667,18.92 155.08,18.28 L155.08,18.28 L159.08,18.24 C159.506667,18.24 159.806667,18.3066667 159.98,18.44 C160.153333,18.5733333 160.22,18.94 160.18,19.54 C160.14,20.14 159.946667,21.1733333 159.6,22.64 L159.6,22.64 L158.96,25.36 C158.693333,26.24 158.593333,26.88 158.66,27.28 C158.726667,27.68 158.966667,28.0666667 159.38,28.44 C159.793333,28.8133333 160.373333,29 161.12,29 L161.12,29 L162.12,29 C162.706667,29 163.073333,29.0733333 163.22,29.22 C163.366667,29.3666667 163.353333,30.14 163.18,31.54 C163.006667,32.94 162.7,34.18 162.26,35.26 C161.82,36.34 161.453333,37.2 161.16,37.84 Z M134.96,46.08 C135.626667,46.16 136.933333,45.92 138.88,45.36 C140.826667,44.8 142.706667,44.22 144.52,43.62 C146.333333,43.02 147.306667,42.1866667 147.44,41.12 C147.52,40.2933333 147.34,39.74 146.9,39.46 C146.46,39.18 146.093333,39.04 145.8,39.04 C145.586667,39.0666667 144.353333,39.4 142.1,40.04 C139.846667,40.68 137.973333,41.1333333 136.48,41.4 C134.986667,41.6666667 134.1,41.9333333 133.82,42.2 C133.54,42.4666667 133.36,42.8666667 133.28,43.4 C133.2,43.9066667 133.253333,44.46 133.44,45.06 C133.626667,45.66 134.133333,46 134.96,46.08 Z M178.44,45.6 C179.08,45.6 179.633333,45.3666667 180.1,44.9 C180.566667,44.4333333 180.8,43.88 180.8,43.24 L180.8,43.24 L180.8,35.12 C180.8,34.9333333 180.893333,34.84 181.08,34.84 L181.08,34.84 L184.84,34.84 C187.08,34.84 189.06,34.4933333 190.78,33.8 C192.5,33.1066667 193.893333,31.9866667 194.96,30.44 C196.026667,28.8933333 196.56,27.0133333 196.56,24.8 C196.56,18.4533333 192.6,15.28 184.68,15.28 L184.68,15.28 L177.08,15.28 C176.44,15.28 175.886667,15.5133333 175.42,15.98 C174.953333,16.4466667 174.72,17 174.72,17.64 L174.72,17.64 L174.72,43.24 C174.72,43.88 174.953333,44.4333333 175.42,44.9 C175.886667,45.3666667 176.44,45.6 177.08,45.6 L177.08,45.6 L178.44,45.6 Z M184.44,30.04 L181.08,30.04 C180.893333,30.04 180.8,29.9333333 180.8,29.72 L180.8,29.72 L180.8,20.4 C180.8,20.1866667 180.893333,20.08 181.08,20.08 L181.08,20.08 L184.24,20.08 C186.4,20.08 188,20.44 189.04,21.16 C190.08,21.88 190.6,23.0933333 190.6,24.8 C190.6,28.2933333 188.546667,30.04 184.44,30.04 L184.44,30.04 Z M210.68,45.6 C215.266667,45.6 218.86,44.3 221.46,41.7 C224.06,39.1 225.36,35.3066667 225.36,30.32 C225.36,25.3066667 224.046667,21.5466667 221.42,19.04 C218.793333,16.5333333 215.106667,15.28 210.36,15.28 L210.36,15.28 L204.4,15.28 C203.76,15.28 203.206667,15.5133333 202.74,15.98 C202.273333,16.4466667 202.04,17 202.04,17.64 L202.04,17.64 L202.04,43.24 C202.04,43.88 202.273333,44.4333333 202.74,44.9 C203.206667,45.3666667 203.76,45.6 204.4,45.6 L204.4,45.6 L210.68,45.6 Z M210,40.72 L208.4,40.72 C208.213333,40.72 208.12,40.6266667 208.12,40.44 L208.12,40.44 L208.12,20.44 C208.12,20.2266667 208.213333,20.12 208.4,20.12 L208.4,20.12 L210,20.12 C212.96,20.12 215.226667,20.9266667 216.8,22.54 C218.373333,24.1533333 219.16,26.7466667 219.16,30.32 C219.16,37.2533333 216.106667,40.72 210,40.72 L210,40.72 Z M235,45.6 C235.64,45.6 236.193333,45.3666667 236.66,44.9 C237.126667,44.4333333 237.36,43.88 237.36,43.24 L237.36,43.24 L237.36,33.6 C237.36,33.4133333 237.453333,33.32 237.64,33.32 L237.64,33.32 L245.76,33.32 C246.4,33.32 246.953333,33.0866667 247.42,32.62 C247.886667,32.1533333 248.12,31.6 248.12,30.96 L248.12,30.96 L248.12,30.6 C248.12,29.9333333 247.886667,29.3733333 247.42,28.92 C246.953333,28.4666667 246.4,28.24 245.76,28.24 L245.76,28.24 L237.64,28.24 C237.453333,28.24 237.36,28.1333333 237.36,27.92 L237.36,27.92 L237.36,20.64 C237.36,20.4266667 237.453333,20.32 237.64,20.32 L237.64,20.32 L247.6,20.32 C248.266667,20.32 248.826667,20.0933333 249.28,19.64 C249.733333,19.1866667 249.96,18.6266667 249.96,17.96 L249.96,17.96 L249.96,17.64 C249.96,17 249.733333,16.4466667 249.28,15.98 C248.826667,15.5133333 248.266667,15.28 247.6,15.28 L247.6,15.28 L233.64,15.28 C233,15.28 232.446667,15.5133333 231.98,15.98 C231.513333,16.4466667 231.28,17 231.28,17.64 L231.28,17.64 L231.28,43.24 C231.28,43.88 231.513333,44.4333333 231.98,44.9 C232.446667,45.3666667 233,45.6 233.64,45.6 L233.64,45.6 L235,45.6 Z"
                  id="超级PDF" fill="#4A4A4A"></path>
        </g>
    </g>
</svg>