<svg width="138" height="26" viewBox="0 0 138 26" fill="none" xmlns="http://www.w3.org/2000/svg">
<path d="M33.9844 5.41504H47.201V8.88171L37.451 17.9817H47.201V21.015H33.9844V17.5484L43.7344 8.44837H33.9844V5.41504Z" fill="black"/>
<path fill-rule="evenodd" clip-rule="evenodd" d="M55.2177 9.74837H58.251V10.6339C59.1266 10.0734 60.1676 9.74837 61.2844 9.74837C64.3956 9.74837 66.9177 12.2705 66.9177 15.3817C66.9177 18.4929 64.3956 21.015 61.2844 21.015C60.1676 21.015 59.1266 20.69 58.251 20.1295V25.3484H55.2177V9.74837ZM61.2844 18.415C59.6091 18.415 58.251 17.057 58.251 15.3817C58.251 13.7065 59.6091 12.3484 61.2844 12.3484C62.9596 12.3484 64.3177 13.7065 64.3177 15.3817C64.3177 17.057 62.9596 18.415 61.2844 18.415Z" fill="black"/>
<path fill-rule="evenodd" clip-rule="evenodd" d="M91.8344 10.6339C90.9588 10.0734 89.9179 9.74837 88.801 9.74837C85.6898 9.74837 83.1677 12.2705 83.1677 15.3817C83.1677 18.4929 85.6898 21.015 88.801 21.015C89.9179 21.015 90.9588 20.69 91.8344 20.1295V21.015H94.8677V9.74837H91.8344V10.6339ZM88.801 18.415C90.4763 18.415 91.8344 17.057 91.8344 15.3817C91.8344 13.7065 90.4763 12.3484 88.801 12.3484C87.1258 12.3484 85.7677 13.7065 85.7677 15.3817C85.7677 17.057 87.1258 18.415 88.801 18.415Z" fill="black"/>
<path fill-rule="evenodd" clip-rule="evenodd" d="M100.284 25.3484V20.1295C101.16 20.69 102.201 21.015 103.318 21.015C106.429 21.015 108.951 18.4929 108.951 15.3817C108.951 12.2705 106.429 9.74837 103.318 9.74837C102.201 9.74837 101.16 10.0734 100.284 10.6339V9.74837H97.251V25.3484H100.284ZM106.351 15.3817C106.351 17.057 104.993 18.415 103.318 18.415C101.642 18.415 100.284 17.057 100.284 15.3817C100.284 13.7065 101.642 12.3484 103.318 12.3484C104.993 12.3484 106.351 13.7065 106.351 15.3817Z" fill="black"/>
<path d="M52.8344 10.8317H49.801V21.015H52.8344V10.8317Z" fill="black"/>
<path d="M81.651 5.41504H68.4344V8.44837H78.1844L68.4344 17.5484V21.015H81.651V17.9817H71.901L81.651 8.88171V5.41504Z" fill="black"/>
<path fill-rule="evenodd" clip-rule="evenodd" d="M119.046 21.015L120.229 17.765H126.013L127.196 21.015H130.424L124.746 5.41504H121.496L115.818 21.015H119.046ZM124.909 14.7317L123.121 9.82015L121.333 14.7317H124.909Z" fill="black"/>
<path d="M51.3177 9.74837C52.275 9.74837 53.051 8.97234 53.051 8.01504C53.051 7.05773 52.275 6.28171 51.3177 6.28171C50.3604 6.28171 49.5844 7.05773 49.5844 8.01504C49.5844 8.97234 50.3604 9.74837 51.3177 9.74837Z" fill="black"/>
<path d="M133.218 5.41504H136.251V21.015H133.218V5.41504Z" fill="black"/>
<path d="M112.201 21.015C113.158 21.015 113.934 20.239 113.934 19.2817C113.934 18.3244 113.158 17.5484 112.201 17.5484C111.244 17.5484 110.468 18.3244 110.468 19.2817C110.468 20.239 111.244 21.015 112.201 21.015Z" fill="black"/>
<circle cx="14" cy="13" r="13" fill="white"/>
<circle cx="14" cy="13" r="13" fill="url(#paint0_radial_1405_46475)" fill-opacity="0.35"/>
<rect x="3.67969" y="5.84766" width="20.4849" height="14.3001" rx="7.15003" fill="black"/>
<path fill-rule="evenodd" clip-rule="evenodd" d="M22.7096 14.9229V11.0566C22.7096 9.17879 21.3537 7.67201 19.6119 7.49018C17.7129 7.29193 15.6557 7.13209 13.9995 7.13209C12.3432 7.13209 10.286 7.29193 8.38705 7.49018C6.64523 7.67201 5.28942 9.17879 5.28942 11.0566V14.9229C5.28942 16.8007 6.64523 18.3075 8.38705 18.4893C10.286 18.6876 12.3432 18.8474 13.9995 18.8474C15.6557 18.8474 17.7129 18.6876 19.6119 18.4893C21.3537 18.3075 22.7096 16.8007 22.7096 14.9229ZM8.15247 5.2453C5.19777 5.55376 3.03125 8.08724 3.03125 11.0566V14.9229C3.03125 17.8923 5.19777 20.4258 8.15248 20.7342C10.0764 20.9351 12.2253 21.1045 13.9995 21.1045C15.7737 21.1045 17.9226 20.9351 19.8465 20.7342C22.8012 20.4258 24.9677 17.8923 24.9677 14.9229V11.0566C24.9677 8.08724 22.8012 5.55376 19.8465 5.2453C17.9226 5.04446 15.7737 4.875 13.9995 4.875C12.2253 4.875 10.0764 5.04446 8.15247 5.2453Z" fill="#00C1A2"/>
<path fill-rule="evenodd" clip-rule="evenodd" d="M7.49382 5.3584C6.15748 6.44897 5.28942 8.06746 5.28942 9.92146V11.0574V14.0192V16.23C5.28942 17.3217 5.58138 18.3504 6.09432 19.2345C4.2568 18.2273 3.03125 16.2564 3.03125 14.0192V11.0574C3.03125 8.30007 4.85929 5.94954 7.49382 5.3584Z" fill="url(#paint1_linear_1405_46475)" fill-opacity="0.7"/>
<path fill-rule="evenodd" clip-rule="evenodd" d="M22.71 15.1437V15.6712C22.71 17.3495 21.423 18.6974 19.8079 18.7784C17.8773 18.8751 15.7401 18.9558 13.9999 18.9558C13.6717 18.9558 13.3293 18.9529 12.9767 18.9476C12.5509 18.9529 12.137 18.9558 11.7418 18.9558C9.4751 18.9558 6.72272 18.8327 4.4834 18.7411C5.48637 20.0656 7.22546 20.7295 8.78467 20.7833C10.5589 20.9445 12.3923 21.1057 13.9999 21.1057C15.7969 21.1057 17.3263 20.8806 19.269 20.7833C22.0648 20.6431 24.5381 18.6874 24.9144 15.6779L24.9682 11.5434C24.9682 9.44929 22.3264 7.28632 20.2368 7.13345C19.3222 7.06654 17.7094 7.1381 16.6883 7.24075C17.3562 7.26531 18.6223 7.42703 19.2152 7.45571C21.1508 7.50945 22.71 9.01228 22.71 10.9844V15.1387C22.71 15.1404 22.71 15.142 22.71 15.1437Z" fill="url(#paint2_linear_1405_46475)" fill-opacity="0.7"/>
<path fill-rule="evenodd" clip-rule="evenodd" d="M3.51465 17.2331C4.48243 19.4901 6.40267 20.6751 8.62241 20.7799C10.4219 20.8649 12.4398 21.2098 14.3754 21.1024C16.0075 21.1024 17.7626 20.9411 19.6444 20.7262C22.3206 20.5998 24.4296 18.4691 24.8597 16.0508C23.8611 17.433 22.2283 18.402 20.401 18.5051C18.1876 18.63 15.6805 18.8453 13.6226 18.8453C11.5647 18.8453 9.05768 18.63 6.84425 18.5051C5.62911 18.4365 4.41279 17.9237 3.51465 17.2331Z" fill="#217AFF" fill-opacity="0.2"/>
<path fill-rule="evenodd" clip-rule="evenodd" d="M3.51465 17.2331C4.48243 19.4901 6.40267 20.6751 8.62241 20.7799C10.4219 20.8649 12.4398 21.2098 14.3754 21.1024C16.0075 21.1024 17.7626 20.9411 19.6444 20.7262C22.3206 20.5998 24.4296 18.4691 24.8597 16.0508C23.8611 17.433 22.2283 18.402 20.401 18.5051C18.1876 18.63 15.6805 18.8453 13.6226 18.8453C11.5647 18.8453 9.05768 18.63 6.84425 18.5051C5.62911 18.4365 4.41279 17.9237 3.51465 17.2331Z" fill="url(#paint3_linear_1405_46475)" fill-opacity="0.7"/>
<path fill-rule="evenodd" clip-rule="evenodd" d="M9.58939 15.3023V10.7881H10.9873V15.3023H9.58939Z" fill="white"/>
<path fill-rule="evenodd" clip-rule="evenodd" d="M18.0127 15.4648L15.6029 12.9892L18.0127 10.5137L19.0146 11.488L17.5533 12.9892L19.0146 14.4904L18.0127 15.4648Z" fill="white"/>
<defs>
<radialGradient id="paint0_radial_1405_46475" cx="0" cy="0" r="1" gradientUnits="userSpaceOnUse" gradientTransform="translate(14 13) rotate(90) scale(13)">
<stop offset="0.166667" stop-color="#00C1A2" stop-opacity="0"/>
<stop offset="1" stop-color="#00C1A2"/>
</radialGradient>
<linearGradient id="paint1_linear_1405_46475" x1="5.2495" y1="5.30466" x2="5.2495" y2="19.2345" gradientUnits="userSpaceOnUse">
<stop stop-color="white"/>
<stop offset="1" stop-color="white" stop-opacity="0"/>
</linearGradient>
<linearGradient id="paint2_linear_1405_46475" x1="10.7116" y1="7.92207" x2="10.7116" y2="20.136" gradientUnits="userSpaceOnUse">
<stop stop-color="white"/>
<stop offset="1" stop-color="white" stop-opacity="0"/>
</linearGradient>
<linearGradient id="paint3_linear_1405_46475" x1="24.7522" y1="20.7261" x2="1.79413" y2="21.1027" gradientUnits="userSpaceOnUse">
<stop stop-color="white"/>
<stop offset="1" stop-color="white" stop-opacity="0"/>
</linearGradient>
</defs>
</svg>
